<?xml version="1.0" standalone="no"?>
<!DOCTYPE svg PUBLIC "-//W3C//DTD SVG 20010904//EN"
 "http://www.w3.org/TR/2001/REC-SVG-20010904/DTD/svg10.dtd">
<svg version="1.0" xmlns="http://www.w3.org/2000/svg"
 width="203.000000pt" height="203.000000pt" viewBox="0 0 203.000000 203.000000"
 preserveAspectRatio="xMidYMid meet">
<metadata>
Created by potrace 1.11, written by Peter Selinger 2001-2013
</metadata>
<g transform="translate(0.000000,203.000000) scale(0.100000,-0.100000)"
fill="#000000" stroke="none">
<path d="M423 1550 c-261 -68 -430 -293 -419 -560 5 -103 23 -166 73 -247 131
-213 324 -302 585 -269 100 13 208 68 298 152 l49 46 43 -42 c118 -115 260
-170 419 -165 114 4 203 34 304 100 62 42 71 59 49 92 -26 40 -118 123 -136
123 -10 0 -39 -13 -65 -29 -93 -57 -210 -65 -307 -22 -66 29 -140 108 -166
179 -28 74 -24 175 10 242 53 105 176 182 290 181 68 -1 107 -12 177 -51 31
-18 62 -29 72 -25 26 8 141 130 141 149 0 20 -68 71 -145 107 -213 100 -461
63 -630 -96 l-58 -54 -63 58 c-139 127 -339 178 -521 131z m258 -242 c202 -92
254 -341 107 -499 -125 -132 -321 -140 -454 -17 -67 62 -97 127 -100 216 -8
235 234 398 447 300z"/>
<path d="M2014 1477 c-12 -12 -323 -311 -420 -403 -30 -28 -54 -54 -54 -58 0
-4 11 -17 24 -29 13 -12 116 -112 230 -222 114 -110 214 -203 221 -208 13 -7
15 58 15 463 0 258 -1 470 -3 470 -1 -1 -7 -6 -13 -13z"/>
</g>
</svg>
